<?xml version="1.0" standalone="no"?>
<!DOCTYPE svg PUBLIC "-//W3C//DTD SVG 20010904//EN"
 "http://www.w3.org/TR/2001/REC-SVG-20010904/DTD/svg10.dtd">
<svg version="1.0" xmlns="http://www.w3.org/2000/svg"
 width="512.000000pt" height="512.000000pt" viewBox="0 0 512.000000 512.000000"
 preserveAspectRatio="xMidYMid meet">
<metadata>
Created by potrace 1.16, written by Peter Selinger 2001-2019
</metadata>
<g transform="translate(0.000000,512.000000) scale(0.100000,-0.100000)"
fill="#000000" stroke="none">
<path d="M1145 2851 c-119 -57 -185 -161 -185 -291 0 -62 5 -85 29 -135 57
-119 161 -185 291 -185 130 0 234 66 291 185 24 50 29 73 29 135 0 62 -5 85
-29 135 -57 119 -161 185 -291 185 -62 0 -85 -5 -135 -29z"/>
<path d="M2425 2851 c-119 -57 -185 -161 -185 -291 0 -62 5 -85 29 -135 57
-119 161 -185 291 -185 89 0 162 29 224 88 97 93 125 246 67 367 -57 119 -161
185 -291 185 -62 0 -85 -5 -135 -29z"/>
<path d="M3705 2851 c-119 -57 -185 -161 -185 -291 0 -62 5 -85 29 -135 57
-119 161 -185 291 -185 89 0 162 29 224 88 97 93 125 246 67 367 -57 119 -161
185 -291 185 -62 0 -85 -5 -135 -29z"/>
</g>
</svg>
