<?xml version="1.0" standalone="no"?>
<!DOCTYPE svg PUBLIC "-//W3C//DTD SVG 20010904//EN"
 "http://www.w3.org/TR/2001/REC-SVG-20010904/DTD/svg10.dtd">
<svg version="1.0" xmlns="http://www.w3.org/2000/svg"
 width="512.000000pt" height="512.000000pt" viewBox="0 0 512.000000 512.000000"
 preserveAspectRatio="xMidYMid meet">
<metadata>
Created by potrace 1.16, written by Peter Selinger 2001-2019
</metadata>
<g transform="translate(0.000000,512.000000) scale(0.100000,-0.100000)"
fill="#000000" stroke="none">
<path d="M441 4825 c-107 -30 -182 -75 -266 -160 -89 -88 -133 -164 -161 -274
-21 -83 -15 -263 10 -336 10 -27 169 -338 355 -689 296 -563 340 -641 366
-651 17 -7 299 -44 627 -81 329 -38 598 -71 598 -74 0 -3 -271 -36 -603 -74
-332 -38 -613 -74 -628 -82 -19 -10 -103 -160 -361 -651 -185 -351 -344 -660
-354 -688 -11 -33 -19 -91 -22 -168 -4 -106 -1 -126 22 -200 61 -198 224 -352
425 -403 89 -22 264 -16 341 13 130 48 4010 1727 4059 1756 115 69 215 200
255 336 21 71 21 237 1 316 -32 123 -136 265 -243 333 -42 27 -3961 1726
-4079 1768 -67 24 -268 29 -342 9z m233 -200 c33 -6 3929 -1680 4039 -1737 61
-31 134 -105 164 -167 25 -50 28 -67 28 -161 0 -94 -3 -111 -28 -161 -30 -62
-103 -136 -163 -167 -71 -36 -3978 -1720 -4020 -1732 -23 -7 -76 -11 -120 -9
-276 13 -448 308 -326 559 15 30 159 306 321 613 195 369 300 557 310 557 20
0 2003 228 2055 236 90 14 127 109 69 174 l-28 31 -1057 122 -1056 122 -309
583 c-169 322 -316 607 -326 635 -34 94 -22 208 31 313 44 87 172 175 280 194
47 8 61 7 136 -5z"/>
</g>
</svg>
