<?xml version="1.0" standalone="no"?>
<!DOCTYPE svg PUBLIC "-//W3C//DTD SVG 20010904//EN"
 "http://www.w3.org/TR/2001/REC-SVG-20010904/DTD/svg10.dtd">
<svg version="1.0" xmlns="http://www.w3.org/2000/svg"
 width="512.000000pt" height="512.000000pt" viewBox="0 0 512.000000 512.000000"
 preserveAspectRatio="xMidYMid meet">
<metadata>
Created by potrace 1.16, written by Peter Selinger 2001-2019
</metadata>
<g transform="translate(0.000000,512.000000) scale(0.100000,-0.100000)"
fill="#000000" stroke="none">
<path d="M2207 5105 c-88 -33 -173 -123 -196 -207 -9 -35 -61 -415 -61 -447 0
-5 -24 -17 -52 -27 -29 -9 -93 -34 -142 -55 -49 -22 -92 -39 -96 -39 -3 0 -85
61 -181 135 -149 117 -184 139 -242 157 -80 24 -150 20 -226 -13 -66 -28 -471
-433 -500 -500 -33 -74 -37 -146 -13 -226 18 -58 40 -93 157 -242 74 -96 135
-178 135 -181 0 -4 -17 -47 -39 -96 -21 -49 -46 -113 -55 -141 -10 -29 -23
-53 -29 -53 -7 -1 -109 -13 -228 -29 -240 -31 -278 -43 -348 -113 -23 -23 -51
-63 -64 -88 -21 -44 -22 -53 -22 -380 0 -330 0 -336 23 -382 13 -26 41 -65 63
-87 68 -68 108 -81 348 -112 119 -16 221 -29 228 -29 6 0 19 -24 29 -52 9 -29
34 -93 55 -142 22 -49 39 -92 39 -96 0 -4 -61 -85 -135 -181 -151 -194 -170
-234 -169 -344 1 -120 16 -142 262 -388 246 -245 269 -260 387 -261 111 -1
150 18 345 169 96 74 177 135 180 135 4 0 47 -17 96 -39 49 -21 113 -46 142
-55 28 -10 52 -23 52 -29 0 -7 13 -109 29 -228 31 -241 44 -279 113 -348 23
-23 63 -51 88 -64 44 -21 53 -22 380 -22 327 0 336 1 380 22 59 29 124 94 151
150 16 32 30 105 50 256 16 117 28 220 29 229 0 11 17 22 53 34 28 9 92 34
141 55 49 22 92 39 96 39 4 0 85 -61 181 -135 195 -151 234 -170 344 -169 119
1 142 17 383 257 251 250 267 274 267 402 -1 108 -15 136 -169 334 -70 90
-130 169 -132 175 -2 6 13 52 34 101 22 50 47 114 56 143 10 28 21 52 26 52
28 0 412 53 445 61 54 14 123 62 163 114 61 80 63 97 60 451 -3 310 -4 320
-26 366 -13 26 -41 65 -63 87 -69 69 -108 81 -358 114 -124 16 -226 30 -227
31 -20 48 -107 265 -110 276 -3 9 51 88 131 190 117 150 139 185 157 243 24
80 20 152 -13 226 -29 67 -434 472 -500 500 -76 33 -146 37 -226 13 -58 -18
-93 -40 -242 -157 -96 -74 -178 -135 -181 -135 -4 0 -47 17 -96 39 -49 21
-113 46 -141 55 -29 10 -53 23 -53 29 0 7 -13 109 -29 228 -31 241 -44 279
-113 348 -23 23 -63 51 -88 64 -43 21 -56 22 -370 24 -261 2 -333 -1 -363 -12z
m652 -230 c16 -14 32 -34 35 -43 3 -9 19 -126 36 -259 17 -133 34 -253 39
-266 13 -35 28 -43 142 -82 57 -20 155 -61 218 -91 115 -55 155 -63 194 -42
12 6 90 64 172 128 250 195 243 190 283 190 34 0 50 -13 234 -198 183 -183
198 -200 198 -233 0 -41 -6 -50 -185 -279 -67 -86 -128 -166 -134 -178 -20
-38 -11 -79 43 -193 30 -63 71 -161 91 -218 39 -113 47 -129 82 -142 12 -4
132 -22 265 -39 134 -17 251 -33 260 -36 9 -3 29 -19 43 -35 l25 -31 0 -268 0
-268 -25 -31 c-14 -16 -34 -32 -43 -35 -9 -3 -127 -19 -261 -36 -134 -17 -253
-35 -265 -40 -33 -12 -43 -28 -81 -141 -20 -57 -61 -155 -91 -218 -54 -114
-63 -155 -43 -193 6 -12 64 -89 129 -172 197 -255 190 -244 190 -284 0 -34
-13 -50 -198 -234 -183 -183 -200 -198 -233 -198 -41 0 -50 6 -279 185 -86 67
-166 128 -178 134 -38 20 -79 11 -193 -43 -63 -30 -161 -71 -218 -91 -113 -39
-129 -47 -142 -82 -4 -12 -22 -132 -39 -265 -17 -134 -33 -251 -36 -260 -3 -9
-19 -29 -35 -43 l-31 -25 -268 0 -268 0 -31 25 c-16 14 -32 34 -35 43 -3 9
-19 126 -36 260 -17 133 -35 253 -39 265 -13 35 -29 43 -142 82 -57 20 -155
61 -218 91 -115 55 -155 63 -194 42 -12 -6 -89 -64 -172 -128 -250 -195 -243
-190 -283 -190 -34 0 -50 13 -234 198 -183 183 -198 200 -198 233 0 41 6 50
185 279 67 86 128 166 134 178 20 38 11 79 -43 193 -30 63 -71 161 -91 218
-39 113 -47 129 -82 142 -12 4 -132 22 -265 39 -134 17 -251 33 -260 36 -9 3
-29 19 -43 35 l-25 31 0 268 0 268 25 31 c14 16 34 32 43 35 9 3 126 19 259
36 133 17 253 34 266 39 35 13 43 28 82 142 20 57 61 155 91 218 54 114 63
155 43 193 -6 12 -67 92 -134 178 -179 229 -185 238 -185 279 0 33 15 50 198
233 184 185 200 198 234 198 40 0 33 5 283 -190 83 -64 160 -122 172 -128 40
-22 79 -13 204 47 68 32 162 71 209 86 101 32 128 48 140 80 5 14 23 134 40
267 17 134 33 251 36 260 3 9 19 29 35 43 l31 25 268 0 268 0 31 -25z"/>
<path d="M2374 3616 c-110 -21 -182 -44 -280 -91 -280 -134 -489 -388 -572
-695 -22 -84 -26 -115 -26 -265 -1 -195 15 -277 82 -432 54 -126 121 -223 226
-329 146 -145 299 -232 501 -285 127 -33 378 -34 506 -2 385 97 684 391 787
771 23 87 26 115 26 272 0 157 -3 185 -26 271 -101 375 -395 669 -766 766
-120 31 -345 40 -458 19z m410 -241 c294 -85 502 -293 592 -592 23 -76 27
-106 27 -223 0 -117 -4 -147 -27 -223 -90 -299 -294 -503 -593 -593 -76 -23
-106 -27 -223 -27 -117 0 -147 4 -223 27 -299 90 -503 294 -593 593 -23 76
-27 106 -27 223 0 117 4 147 27 223 100 333 362 564 699 618 89 14 244 2 341
-26z"/>
</g>
</svg>
